<?xml version="1.0" standalone="no"?>
<!DOCTYPE svg PUBLIC "-//W3C//DTD SVG 20010904//EN"
 "http://www.w3.org/TR/2001/REC-SVG-20010904/DTD/svg10.dtd">
<svg version="1.0" xmlns="http://www.w3.org/2000/svg"
 width="768.000000pt" height="768.000000pt" viewBox="0 0 768.000000 768.000000"
 preserveAspectRatio="xMidYMid meet">

<g transform="translate(0.000000,768.000000) scale(0.100000,-0.100000)"
fill="#000000" stroke="none">
<path d="M3978 6519 c-54 -13 -102 -46 -230 -157 -62 -54 -183 -159 -269 -233
-86 -74 -203 -175 -260 -224 -57 -50 -223 -194 -369 -319 -146 -126 -294 -254
-329 -285 -35 -31 -125 -109 -200 -173 l-136 -117 -815 -3 c-760 -3 -818 -4
-855 -21 -50 -23 -100 -70 -128 -122 l-22 -40 0 -1055 0 -1055 24 -42 c29 -50
80 -93 139 -116 38 -15 115 -17 835 -17 l793 0 199 -173 c110 -94 281 -242
380 -328 99 -85 402 -347 673 -581 523 -453 530 -458 631 -458 92 0 196 73
232 161 17 42 18 179 18 2595 1 2875 9 2607 -78 2694 -61 60 -155 89 -233 69z"/>
<path d="M6226 6485 c-121 -43 -191 -168 -166 -292 9 -42 31 -79 108 -185 168
-231 247 -356 359 -577 204 -401 334 -858 383 -1342 13 -133 13 -530 0 -669
-66 -693 -293 -1304 -690 -1853 -47 -66 -97 -137 -112 -159 -64 -95 -55 -224
21 -311 91 -103 268 -109 365 -12 36 36 161 203 228 305 207 313 395 696 496
1010 49 154 59 189 91 315 266 1066 110 2199 -434 3151 -129 224 -345 530
-411 580 -68 52 -159 67 -238 39z"/>
<path d="M5552 5817 c-47 -15 -117 -80 -142 -131 -14 -30 -21 -64 -21 -105 -1
-72 23 -126 106 -246 83 -118 157 -245 219 -375 430 -905 345 -1978 -221
-2799 -81 -117 -94 -148 -95 -222 -3 -203 235 -329 399 -210 69 50 220 279
342 521 552 1091 462 2394 -235 3397 -72 104 -126 155 -183 171 -46 14 -124
14 -169 -1z"/>
<path d="M4832 5097 c-47 -15 -117 -80 -143 -134 -16 -34 -23 -64 -22 -109 0
-54 6 -73 43 -141 202 -367 273 -616 272 -958 -1 -341 -71 -604 -245 -918 -72
-129 -80 -189 -40 -285 18 -43 83 -108 130 -128 47 -20 135 -22 187 -5 83 29
165 138 265 353 147 315 214 626 215 988 0 352 -71 667 -224 988 -109 228
-183 325 -269 350 -46 14 -124 14 -169 -1z"/>
</g>
</svg>
